# xmcd
#
# Track frame offsets:
#	150
#	12329
#	28513
#	41687
#	51199
#	71580
#	83560
#	97575
#	114505
#	130029
#
# Disc length: 1914 seconds
#
# Revision: 0
# Processed by: cddbd v1.5.2PL0 Copyright (c) Steve Scherf et al.
# Submitted via: EasyCDDAExtractor 10.5.1.1
#
DISCID=7107780a
DTITLE=Suttles - As For Me And House
DYEAR=1900
DGENRE=Gospel
TTITLE0=Living Water
TTITLE1=As For Me And House
TTITLE2=I'll Walk Into That
TTITLE3=Beautiful Sunset
TTITLE4=Dry Ground
TTITLE5=THat's What Grace Is For
TTITLE6=The Finish Line
TTITLE7=My Best Friend
TTITLE8=Plant The Seed
TTITLE9=Whisper His Name
EXTD=
EXTT0=
EXTT1=
EXTT2=
EXTT3=
EXTT4=
EXTT5=
EXTT6=
EXTT7=
EXTT8=
EXTT9=
PLAYORDER=
